<svg width="2754" height="1159" xmlns="http://www.w3.org/2000/svg" xmlns:xlink="http://www.w3.org/1999/xlink" xml:space="preserve" overflow="hidden"><g transform="translate(-273 -746)"><text fill="#484848" font-family="Roboto,Roboto_MSFontService,sans-serif" font-weight="400" font-size="28" transform="matrix(1 0 0 1 356.213 919)">Obtain the necessary code files</text><text fill="#484848" font-family="Roboto,Roboto_MSFontService,sans-serif" font-weight="400" font-size="28" transform="matrix(1 0 0 1 427.255 952)">from the repository.</text><text fill="#484848" font-family="Roboto,Roboto_MSFontService,sans-serif" font-weight="400" font-size="28" transform="matrix(1 0 0 1 1522.04 1837)">Initiate the file selection</text><text fill="#484848" font-family="Roboto,Roboto_MSFontService,sans-serif" font-weight="400" font-size="28" transform="matrix(1 0 0 1 1615.7 1870)">process.</text><path d="M697.543 1335C690.621 1433.08 608.862 1510.5 509.021 1510.5 409.181 1510.5 327.422 1433.08 320.5 1335M698.492 1308C705.415 1209.92 787.174 1132.5 887.014 1132.5 986.855 1132.5 1068.61 1209.92 1075.54 1308M1453.53 1335C1446.61 1433.08 1364.85 1510.5 1265.01 1510.5 1165.17 1510.5 1083.41 1433.08 1076.49 1335M1454.48 1308C1461.4 1209.92 1543.16 1132.5 1643 1132.5 1742.84 1132.5 1824.6 1209.92 1831.52 1308M2209.51 1335C2202.59 1433.08 2120.83 1510.5 2020.99 1510.5 1921.15 1510.5 1839.39 1433.08 1832.47 1335M2210.46 1308C2217.39 1209.92 2299.14 1132.5 2398.99 1132.5 2498.83 1132.5 2580.58 1209.92 2587.51 1308M2965.5 1335C2958.58 1433.08 2876.82 1510.5 2776.98 1510.5 2677.14 1510.5 2595.38 1433.08 2588.46 1335" stroke="#969696" stroke-width="3.3747" stroke-linejoin="round" stroke-miterlimit="10" stroke-dasharray="13.4988 10.1241" fill="none" fill-rule="evenodd"/><path d="M360 1321.5C360 1239.49 426.485 1173 508.5 1173 590.514 1173 657 1239.49 657 1321.5 657 1403.51 590.514 1470 508.5 1470 426.485 1470 360 1403.51 360 1321.5M306 1321.5C306 1314.04 312.044 1308 319.5 1308 326.956 1308 333 1314.04 333 1321.5 333 1328.96 326.956 1335 319.5 1335 312.044 1335 306 1328.96 306 1321.5" fill="#EDF4FF" fill-rule="evenodd"/><path d="M529 1024.5C529 1035.82 520.046 1045 509 1045 497.954 1045 489 1035.82 489 1024.5 489 1013.18 497.954 1004 509 1004 520.046 1004 529 1013.18 529 1024.5Z" fill="#EDF4FF" fill-rule="evenodd"/><path d="M360.5 1322C360.5 1239.99 426.985 1173.5 509 1173.5 591.014 1173.5 657.5 1239.99 657.5 1322 657.5 1404.01 591.014 1470.5 509 1470.5 426.985 1470.5 360.5 1404.01 360.5 1322M306.5 1322C306.5 1314.54 312.544 1308.5 320 1308.5 327.456 1308.5 333.5 1314.54 333.5 1322 333.5 1329.46 327.456 1335.5 320 1335.5 312.544 1335.5 306.5 1329.46 306.5 1322" stroke="#4E88E7" stroke-width="3.3747" stroke-linejoin="round" stroke-miterlimit="10" fill="none" fill-rule="evenodd"/><path d="M529.5 1025C529.5 1036.32 520.546 1045.5 509.5 1045.5 498.454 1045.5 489.5 1036.32 489.5 1025 489.5 1013.68 498.454 1004.5 509.5 1004.5 520.546 1004.5 529.5 1013.68 529.5 1025Z" stroke="#4E88E7" stroke-width="3.3747" stroke-linejoin="round" stroke-miterlimit="10" fill="none" fill-rule="evenodd"/><path d="M738 1321.5C738 1239.49 804.485 1173 886.5 1173 968.514 1173 1035 1239.49 1035 1321.5 1035 1403.51 968.514 1470 886.5 1470 804.485 1470 738 1403.51 738 1321.5M684 1321.5C684 1314.04 690.044 1308 697.5 1308 704.956 1308 711 1314.04 711 1321.5 711 1328.96 704.956 1335 697.5 1335 690.044 1335 684 1328.96 684 1321.5" fill="#E3FFF2" fill-rule="evenodd"/><path d="M907 1618.5C907 1629.82 898.046 1639 887 1639 875.954 1639 867 1629.82 867 1618.5 867 1607.18 875.954 1598 887 1598 898.046 1598 907 1607.18 907 1618.5Z" fill="#E3FFF2" fill-rule="evenodd"/><path d="M738.5 1322C738.5 1239.99 804.985 1173.5 887 1173.5 969.014 1173.5 1035.5 1239.99 1035.5 1322 1035.5 1404.01 969.014 1470.5 887 1470.5 804.985 1470.5 738.5 1404.01 738.5 1322M684.5 1322C684.5 1314.54 690.544 1308.5 698 1308.5 705.455 1308.5 711.5 1314.54 711.5 1322 711.5 1329.46 705.455 1335.5 698 1335.5 690.544 1335.5 684.5 1329.46 684.5 1322" stroke="#3CC583" stroke-width="3.3747" stroke-linejoin="round" stroke-miterlimit="10" fill="none" fill-rule="evenodd"/><path d="M907.5 1619C907.5 1630.32 898.546 1639.5 887.5 1639.5 876.454 1639.5 867.5 1630.32 867.5 1619 867.5 1607.68 876.454 1598.5 887.5 1598.5 898.546 1598.5 907.5 1607.68 907.5 1619Z" stroke="#3CC583" stroke-width="3.3747" stroke-linejoin="round" stroke-miterlimit="10" fill="none" fill-rule="evenodd"/><path d="M1116 1321.5C1116 1239.49 1182.49 1173 1264.5 1173 1346.51 1173 1413 1239.49 1413 1321.5 1413 1403.51 1346.51 1470 1264.5 1470 1182.49 1470 1116 1403.51 1116 1321.5M1062 1321.5C1062 1314.04 1068.04 1308 1075.5 1308 1082.96 1308 1089 1314.04 1089 1321.5 1089 1328.96 1082.96 1335 1075.5 1335 1068.04 1335 1062 1328.96 1062 1321.5" fill="#FFECEB" fill-rule="evenodd"/><path d="M1285 1024.5C1285 1035.82 1276.05 1045 1265 1045 1253.95 1045 1245 1035.82 1245 1024.5 1245 1013.18 1253.95 1004 1265 1004 1276.05 1004 1285 1013.18 1285 1024.5Z" fill="#FFECEB" fill-rule="evenodd"/><path d="M1116.5 1322C1116.5 1239.99 1182.99 1173.5 1265 1173.5 1347.01 1173.5 1413.5 1239.99 1413.5 1322 1413.5 1404.01 1347.01 1470.5 1265 1470.5 1182.99 1470.5 1116.5 1404.01 1116.5 1322M1062.5 1322C1062.5 1314.54 1068.54 1308.5 1076 1308.5 1083.46 1308.5 1089.5 1314.54 1089.5 1322 1089.5 1329.46 1083.46 1335.5 1076 1335.5 1068.54 1335.5 1062.5 1329.46 1062.5 1322" stroke="#E55753" stroke-width="3.3747" stroke-linejoin="round" stroke-miterlimit="10" fill="none" fill-rule="evenodd"/><path d="M1285.5 1025C1285.5 1036.32 1276.55 1045.5 1265.5 1045.5 1254.45 1045.5 1245.5 1036.32 1245.5 1025 1245.5 1013.68 1254.45 1004.5 1265.5 1004.5 1276.55 1004.5 1285.5 1013.68 1285.5 1025Z" stroke="#E55753" stroke-width="3.3747" stroke-linejoin="round" stroke-miterlimit="10" fill="none" fill-rule="evenodd"/><path d="M1494 1321.5C1494 1239.49 1560.49 1173 1642.5 1173 1724.51 1173 1791 1239.49 1791 1321.5 1791 1403.51 1724.51 1470 1642.5 1470 1560.49 1470 1494 1403.51 1494 1321.5M1440 1321.5C1440 1314.04 1446.04 1308 1453.5 1308 1460.96 1308 1467 1314.04 1467 1321.5 1467 1328.96 1460.96 1335 1453.5 1335 1446.04 1335 1440 1328.96 1440 1321.5" fill="#FFFBDA" fill-rule="evenodd"/><path d="M1663 1618.5C1663 1629.82 1654.05 1639 1643 1639 1631.95 1639 1623 1629.82 1623 1618.5 1623 1607.18 1631.95 1598 1643 1598 1654.05 1598 1663 1607.18 1663 1618.5Z" fill="#FFFBDA" fill-rule="evenodd"/><path d="M1494.5 1322C1494.5 1239.99 1560.99 1173.5 1643 1173.5 1725.01 1173.5 1791.5 1239.99 1791.5 1322 1791.5 1404.01 1725.01 1470.5 1643 1470.5 1560.99 1470.5 1494.5 1404.01 1494.5 1322M1440.5 1322C1440.5 1314.54 1446.54 1308.5 1454 1308.5 1461.46 1308.5 1467.5 1314.54 1467.5 1322 1467.5 1329.46 1461.46 1335.5 1454 1335.5 1446.54 1335.5 1440.5 1329.46 1440.5 1322" stroke="#E0CB15" stroke-width="3.3747" stroke-linejoin="round" stroke-miterlimit="10" fill="none" fill-rule="evenodd"/><path d="M1663.5 1619C1663.5 1630.32 1654.55 1639.5 1643.5 1639.5 1632.45 1639.5 1623.5 1630.32 1623.5 1619 1623.5 1607.68 1632.45 1598.5 1643.5 1598.5 1654.55 1598.5 1663.5 1607.68 1663.5 1619Z" stroke="#E0CB15" stroke-width="3.3747" stroke-linejoin="round" stroke-miterlimit="10" fill="none" fill-rule="evenodd"/><path d="M1872 1321.5C1872 1239.49 1938.49 1173 2020.5 1173 2102.51 1173 2169 1239.49 2169 1321.5 2169 1403.51 2102.51 1470 2020.5 1470 1938.49 1470 1872 1403.51 1872 1321.5M1818 1321.5C1818 1314.04 1824.04 1308 1831.5 1308 1838.96 1308 1845 1314.04 1845 1321.5 1845 1328.96 1838.96 1335 1831.5 1335 1824.04 1335 1818 1328.96 1818 1321.5" fill="#FFF2E5" fill-rule="evenodd"/><path d="M2041 1024.5C2041 1035.82 2032.05 1045 2021 1045 2009.95 1045 2001 1035.82 2001 1024.5 2001 1013.18 2009.95 1004 2021 1004 2032.05 1004 2041 1013.18 2041 1024.5Z" fill="#FFF2E5" fill-rule="evenodd"/><path d="M1872.5 1322C1872.5 1239.99 1938.99 1173.5 2021 1173.5 2103.01 1173.5 2169.5 1239.99 2169.5 1322 2169.5 1404.01 2103.01 1470.5 2021 1470.5 1938.99 1470.5 1872.5 1404.01 1872.5 1322M1818.5 1322C1818.5 1314.54 1824.54 1308.5 1832 1308.5 1839.46 1308.5 1845.5 1314.54 1845.5 1322 1845.5 1329.46 1839.46 1335.5 1832 1335.5 1824.54 1335.5 1818.5 1329.46 1818.5 1322" stroke="#DE8431" stroke-width="3.3747" stroke-linejoin="round" stroke-miterlimit="10" fill="none" fill-rule="evenodd"/><path d="M2041.5 1025C2041.5 1036.32 2032.55 1045.5 2021.5 1045.5 2010.45 1045.5 2001.5 1036.32 2001.5 1025 2001.5 1013.68 2010.45 1004.5 2021.5 1004.5 2032.55 1004.5 2041.5 1013.68 2041.5 1025Z" stroke="#DE8431" stroke-width="3.3747" stroke-linejoin="round" stroke-miterlimit="10" fill="none" fill-rule="evenodd"/><path d="M2250 1321.5C2250 1239.49 2316.49 1173 2398.5 1173 2480.51 1173 2547 1239.49 2547 1321.5 2547 1403.51 2480.51 1470 2398.5 1470 2316.49 1470 2250 1403.51 2250 1321.5M2196 1321.5C2196 1314.04 2202.04 1308 2209.5 1308 2216.96 1308 2223 1314.04 2223 1321.5 2223 1328.96 2216.96 1335 2209.5 1335 2202.04 1335 2196 1328.96 2196 1321.5" fill="#FFEBF7" fill-rule="evenodd"/><path d="M2419 1618.5C2419 1629.82 2410.05 1639 2399 1639 2387.95 1639 2379 1629.82 2379 1618.5 2379 1607.18 2387.95 1598 2399 1598 2410.05 1598 2419 1607.18 2419 1618.5Z" fill="#FFEBF7" fill-rule="evenodd"/><path d="M2250.5 1322C2250.5 1239.99 2316.99 1173.5 2399 1173.5 2481.01 1173.5 2547.5 1239.99 2547.5 1322 2547.5 1404.01 2481.01 1470.5 2399 1470.5 2316.99 1470.5 2250.5 1404.01 2250.5 1322M2196.5 1322C2196.5 1314.54 2202.54 1308.5 2210 1308.5 2217.46 1308.5 2223.5 1314.54 2223.5 1322 2223.5 1329.46 2217.46 1335.5 2210 1335.5 2202.54 1335.5 2196.5 1329.46 2196.5 1322" stroke="#DE58A9" stroke-width="3.3747" stroke-linejoin="round" stroke-miterlimit="10" fill="none" fill-rule="evenodd"/><path d="M2419.5 1619C2419.5 1630.32 2410.55 1639.5 2399.5 1639.5 2388.45 1639.5 2379.5 1630.32 2379.5 1619 2379.5 1607.68 2388.45 1598.5 2399.5 1598.5 2410.55 1598.5 2419.5 1607.68 2419.5 1619Z" stroke="#DE58A9" stroke-width="3.3747" stroke-linejoin="round" stroke-miterlimit="10" fill="none" fill-rule="evenodd"/><path d="M2628 1321.5C2628 1239.49 2694.49 1173 2776.5 1173 2858.51 1173 2925 1239.49 2925 1321.5 2925 1403.51 2858.51 1470 2776.5 1470 2694.49 1470 2628 1403.51 2628 1321.5M2574 1321.5C2574 1314.04 2580.04 1308 2587.5 1308 2594.96 1308 2601 1314.04 2601 1321.5 2601 1328.96 2594.96 1335 2587.5 1335 2580.04 1335 2574 1328.96 2574 1321.5M2952 1321.5C2952 1314.04 2958.04 1308 2965.5 1308 2972.96 1308 2979 1314.04 2979 1321.5 2979 1328.96 2972.96 1335 2965.5 1335 2958.04 1335 2952 1328.96 2952 1321.5" fill="#E8F9FF" fill-rule="evenodd"/><path d="M2797 1024.5C2797 1035.82 2788.05 1045 2777 1045 2765.95 1045 2757 1035.82 2757 1024.5 2757 1013.18 2765.95 1004 2777 1004 2788.05 1004 2797 1013.18 2797 1024.5Z" fill="#E8F9FF" fill-rule="evenodd"/><path d="M2628.5 1322C2628.5 1239.99 2694.99 1173.5 2777 1173.5 2859.01 1173.5 2925.5 1239.99 2925.5 1322 2925.5 1404.01 2859.01 1470.5 2777 1470.5 2694.99 1470.5 2628.5 1404.01 2628.5 1322M2574.5 1322C2574.5 1314.54 2580.54 1308.5 2588 1308.5 2595.46 1308.5 2601.5 1314.54 2601.5 1322 2601.5 1329.46 2595.46 1335.5 2588 1335.5 2580.54 1335.5 2574.5 1329.46 2574.5 1322M2952.5 1322C2952.5 1314.54 2958.54 1308.5 2966 1308.5 2973.46 1308.5 2979.5 1314.54 2979.5 1322 2979.5 1329.46 2973.46 1335.5 2966 1335.5 2958.54 1335.5 2952.5 1329.46 2952.5 1322" stroke="#1EABDA" stroke-width="3.3747" stroke-linejoin="round" stroke-miterlimit="10" fill="none" fill-rule="evenodd"/><path d="M2797.5 1025C2797.5 1036.32 2788.55 1045.5 2777.5 1045.5 2766.45 1045.5 2757.5 1036.32 2757.5 1025 2757.5 1013.68 2766.45 1004.5 2777.5 1004.5 2788.55 1004.5 2797.5 1013.68 2797.5 1025Z" stroke="#1EABDA" stroke-width="3.3747" stroke-linejoin="round" stroke-miterlimit="10" fill="none" fill-rule="evenodd"/><path d="M509.5 1173.5 509.5 1045.5" stroke="#969696" stroke-width="3.3747" stroke-linejoin="round" stroke-miterlimit="10" fill="none" fill-rule="evenodd"/><path d="M1265.5 1173.5 1265.5 1045.5" stroke="#969696" stroke-width="3.3747" stroke-linejoin="round" stroke-miterlimit="10" fill="none" fill-rule="evenodd"/><path d="M2021.5 1173.5 2021.5 1045.5" stroke="#969696" stroke-width="3.3747" stroke-linejoin="round" stroke-miterlimit="10" fill="none" fill-rule="evenodd"/><path d="M2777.5 1173.5 2777.5 1045.5" stroke="#969696" stroke-width="3.3747" stroke-linejoin="round" stroke-miterlimit="10" fill="none" fill-rule="evenodd"/><path d="M887.5 1598.5 887.5 1470.5" stroke="#969696" stroke-width="3.3747" stroke-linejoin="round" stroke-miterlimit="10" fill="none" fill-rule="evenodd"/><path d="M1643.5 1598.5 1643.5 1470.5" stroke="#969696" stroke-width="3.3747" stroke-linejoin="round" stroke-miterlimit="10" fill="none" fill-rule="evenodd"/><path d="M2399.5 1598.5 2399.5 1470.5" stroke="#969696" stroke-width="3.3747" stroke-linejoin="round" stroke-miterlimit="10" fill="none" fill-rule="evenodd"/><text fill="#484848" font-family="Roboto,Roboto_MSFontService,sans-serif" font-weight="400" font-size="28" transform="matrix(1 0 0 1 2641.21 952)">Start the analysis process.</text><text fill="#484848" font-family="Roboto,Roboto_MSFontService,sans-serif" font-weight="400" font-size="28" transform="matrix(1 0 0 1 1887.13 919)">Choose the extracted folder</text><text fill="#484848" font-family="Roboto,Roboto_MSFontService,sans-serif" font-weight="400" font-size="28" transform="matrix(1 0 0 1 1972.49 952)">and upload it.</text><text fill="#484848" font-family="Roboto,Roboto_MSFontService,sans-serif" font-weight="400" font-size="28" transform="matrix(1 0 0 1 1116.23 919)">Delete files that are not needed</text><text fill="#484848" font-family="Roboto,Roboto_MSFontService,sans-serif" font-weight="400" font-size="28" transform="matrix(1 0 0 1 1231.39 952)">for analysis.</text><text fill="#1EABDA" font-family="Roboto,Roboto_MSFontService,sans-serif" font-weight="700" font-size="41" transform="matrix(1 0 0 1 2613.1 879)">Click Submit Button</text><text fill="#4E88E7" font-family="Roboto,Roboto_MSFontService,sans-serif" font-weight="700" font-size="41" transform="matrix(1 0 0 1 341.115 852)">Download Code Files</text><text fill="#DE8431" font-family="Roboto,Roboto_MSFontService,sans-serif" font-weight="700" font-size="41" transform="matrix(1 0 0 1 1868.51 798)">Select and Upload</text><text fill="#DE8431" font-family="Roboto,Roboto_MSFontService,sans-serif" font-weight="700" font-size="41" transform="matrix(1 0 0 1 1977.66 848)">Folder</text><text fill="#E55753" font-family="Roboto,Roboto_MSFontService,sans-serif" font-weight="700" font-size="41" transform="matrix(1 0 0 1 1083.47 798)">Remove Unnecessary</text><text fill="#E55753" font-family="Roboto,Roboto_MSFontService,sans-serif" font-weight="700" font-size="41" transform="matrix(1 0 0 1 1239.6 848)">Files</text><text fill="#3CC583" font-family="Roboto,Roboto_MSFontService,sans-serif" font-weight="700" font-size="41" transform="matrix(1 0 0 1 762.206 1716)">Extract Zip File</text><text fill="#E0CB15" font-family="Roboto,Roboto_MSFontService,sans-serif" font-weight="700" font-size="41" transform="matrix(1 0 0 1 1481.41 1716)">Click Choose Files</text><text fill="#E0CB15" font-family="Roboto,Roboto_MSFontService,sans-serif" font-weight="700" font-size="41" transform="matrix(1 0 0 1 1590.56 1766)">Button</text><text fill="#DE58A9" font-family="Roboto,Roboto_MSFontService,sans-serif" font-weight="700" font-size="41" transform="matrix(1 0 0 1 2218.37 1716)">Click Upload in Popup</text><text fill="#484848" font-family="Roboto,Roboto_MSFontService,sans-serif" font-weight="400" font-size="28" transform="matrix(1 0 0 1 746.083 1783)">Unzip the downloaded file to a</text><text fill="#484848" font-family="Roboto,Roboto_MSFontService,sans-serif" font-weight="400" font-size="28" transform="matrix(1 0 0 1 858.65 1816)">local folder.</text><text fill="#484848" font-family="Roboto,Roboto_MSFontService,sans-serif" font-weight="400" font-size="28" transform="matrix(1 0 0 1 2274.63 1783)">Confirm the upload in the</text><text fill="#484848" font-family="Roboto,Roboto_MSFontService,sans-serif" font-weight="400" font-size="28" transform="matrix(1 0 0 1 2335.93 1816)">popup window.</text><path d="M479.806 1343.5 469.064 1343.5C469.064 1343.5 447.5 1343.82 447.5 1323.29 447.505 1317.21 450.254 1311.45 454.982 1307.62 459.71 1303.79 465.914 1302.29 471.871 1303.54 472.876 1286.35 485.419 1272.04 502.333 1268.77 519.248 1265.5 536.225 1274.11 543.568 1289.69 550.878 1289.41 557.988 1292.12 563.257 1297.19 568.526 1302.27 571.5 1309.26 571.495 1316.58 571.495 1340.36 547.259 1343.52 547.259 1343.52L539.031 1343.52M509.498 1372.3 509.498 1315.97M526.406 1357.6 509.498 1374.5 492.589 1357.6" stroke="#4E88E7" stroke-width="3.3747" stroke-linejoin="round" stroke-miterlimit="10" fill="none" fill-rule="evenodd"/><path d="M923.724 1330.15 929.562 1352.83C931.109 1358.85 927.476 1364.97 921.446 1366.52L861.159 1381.96C855.128 1383.5 848.984 1379.88 847.436 1373.86L826.137 1291.1C824.589 1285.09 828.223 1278.96 834.254 1277.42L894.54 1261.98C899.436 1260.73 904.406 1262.88 906.931 1266.95M931.046 1267.08 931.046 1314.58M913.59 1284.49 931.046 1267.08 948.5 1284.49" stroke="#3CC583" stroke-width="3.3747" stroke-linejoin="round" stroke-miterlimit="10" fill="none" fill-rule="evenodd"/><path d="M1309 1307.08 1299.33 1384.5 1231.67 1384.5 1222 1307.08M1207.5 1287.73 1323.5 1287.73M1240.95 1284.92 1240.95 1268.18C1240.95 1262.83 1245.27 1258.5 1250.61 1258.5L1279.61 1258.5C1284.95 1258.5 1289.28 1262.83 1289.28 1268.18L1289.28 1287.53" stroke="#E55753" stroke-width="3.3747" stroke-linejoin="round" stroke-miterlimit="10" fill="none" fill-rule="evenodd"/><path d="M1583.34 1365.5C1581.86 1365.5 1580.67 1364.31 1580.67 1362.83L1580.67 1328.19C1580.67 1326.72 1581.86 1325.53 1583.34 1325.53L1603.52 1325.53C1604.21 1325.53 1604.89 1325.79 1605.38 1326.29L1610.72 1331.41C1611.24 1331.9 1611.53 1332.6 1611.53 1333.31L1611.53 1362.83C1611.53 1364.31 1610.33 1365.5 1608.86 1365.5ZM1630.48 1365.5C1629 1365.5 1627.81 1364.31 1627.81 1362.83L1627.81 1328.19C1627.81 1326.72 1629 1325.53 1630.48 1325.53L1650.65 1325.53C1651.34 1325.53 1652.02 1325.79 1652.52 1326.29L1657.86 1331.41C1658.38 1331.9 1658.66 1332.6 1658.66 1333.31L1658.66 1362.83C1658.66 1364.31 1657.47 1365.5 1655.99 1365.5ZM1677.31 1365.5C1675.84 1365.5 1674.64 1364.31 1674.64 1362.83L1674.64 1328.19C1674.64 1326.72 1675.84 1325.53 1677.31 1325.53L1697.49 1325.53C1698.18 1325.53 1698.86 1325.79 1699.36 1326.29L1704.7 1331.41C1705.21 1331.9 1705.5 1332.6 1705.5 1333.31L1705.5 1362.83C1705.5 1364.31 1704.31 1365.5 1702.83 1365.5ZM1665.73 1301.97 1684.11 1304.01 1686.15 1285.67M1603.52 1301.97C1609.86 1292.47 1624.15 1278.41 1642.39 1278.41 1660.64 1278.41 1674.13 1289.89 1681.47 1301.97" stroke="#E0CB15" stroke-width="3.3747" stroke-linejoin="round" stroke-miterlimit="10" fill="none" fill-rule="evenodd"/><path d="M2001.72 1352.85 1962.15 1352.85C1959.03 1352.85 1956.5 1350.34 1956.5 1347.24L1956.5 1263.11C1956.5 1260.01 1959.03 1257.5 1962.15 1257.5L1992.57 1257.5C1994.71 1257.5 1996.67 1258.7 1997.63 1260.6L2002.98 1271.22C2003.94 1273.12 2005.9 1274.32 2008.04 1274.33L2063.89 1274.33C2067.01 1274.33 2069.54 1276.84 2069.54 1279.93L2069.54 1302.37M2018.67 1352.85C2018.67 1334.26 2033.86 1319.2 2052.59 1319.2 2071.32 1319.2 2086.5 1334.26 2086.5 1352.85 2086.5 1371.43 2071.32 1386.5 2052.59 1386.5 2033.86 1386.5 2018.67 1371.43 2018.67 1352.85ZM2052.59 1336.02 2052.59 1369.67M2039.87 1348.64 2052.59 1336.02M2065.3 1348.64 2052.59 1336.02" stroke="#DE8431" stroke-width="3.3747" stroke-linejoin="round" stroke-miterlimit="10" fill="none" fill-rule="evenodd"/><path d="M2415.57 1372.52 2450.5 1372.52M2384.4 1372.52 2361.25 1372.52C2357.87 1372.52 2354.63 1371.19 2352.23 1368.81 2349.84 1366.43 2348.5 1363.2 2348.5 1359.84M2361.25 1347.16C2354.31 1347.16 2348.5 1352.93 2348.5 1359.84L2348.5 1276.69C2348.5 1267.48 2356.24 1259.78 2365.5 1259.78L2446.25 1259.78C2448.5 1259.78 2450.5 1261.77 2450.5 1264.01L2450.5 1342.93C2450.5 1345.17 2448.5 1347.16 2446.25 1347.16L2435.4 1347.16M2442 1347.16 2442 1372.52M2370.46 1299.24C2369.28 1299.24 2368.33 1300.19 2368.33 1301.36 2368.33 1302.52 2369.28 1303.47 2370.46 1303.47M2370.46 1303.47C2371.63 1303.47 2372.58 1302.52 2372.58 1301.36 2372.58 1300.19 2371.63 1299.24 2370.46 1299.24M2370.46 1279.51C2369.28 1279.51 2368.33 1280.46 2368.33 1281.63 2368.33 1282.79 2369.28 1283.74 2370.46 1283.74M2370.46 1283.74C2371.63 1283.74 2372.58 1282.79 2372.58 1281.63 2372.58 1280.46 2371.63 1279.51 2370.46 1279.51M2399.5 1384.5 2399.5 1317.57M2422.52 1340.46 2399.51 1317.57 2376.49 1340.46" stroke="#DE58A9" stroke-width="3.3747" stroke-linejoin="round" stroke-miterlimit="10" fill="none" fill-rule="evenodd"/><path d="M2769.72 1319.06 2722.18 1319.06C2719.94 1319.06 2717.79 1318.17 2716.2 1316.6 2714.62 1315.02 2713.73 1312.87 2713.73 1310.64L2713.73 1267.13C2713.73 1264.9 2714.62 1262.76 2716.2 1261.18 2717.79 1259.6 2719.94 1258.71 2722.18 1258.71L2822.19 1258.71C2824.43 1258.71 2826.58 1259.6 2828.16 1261.18 2829.75 1262.76 2830.64 1264.9 2830.64 1267.13L2830.64 1310.64C2830.64 1312.87 2829.75 1315.02 2828.16 1316.6 2826.58 1318.17 2824.43 1319.06 2822.19 1319.06M2781.34 1384.5 2765.77 1367.04C2762.53 1363.49 2762.86 1357.78 2766.42 1354.63 2770.02 1351.44 2775.72 1351.8 2778.88 1355.43L2789.79 1367.66 2789.79 1322.75C2789.79 1318.16 2793.64 1314.32 2798.24 1314.32 2802.85 1314.32 2806.69 1318.16 2806.69 1322.75L2806.69 1355.03 2815.15 1355.03C2821.87 1355.03 2828.32 1357.69 2833.07 1362.43 2837.83 1367.16 2840.5 1373.59 2840.5 1380.29L2840.5 1384.5M2735.2 1297.31C2736.07 1299.77 2738.78 1301.53 2741.55 1301.53 2745.05 1301.53 2747.89 1298.7 2747.89 1295.21L2747.89 1294.84C2747.89 1291.96 2745.92 1289.45 2743.12 1288.75L2739.54 1287.86C2736.99 1287.22 2735.2 1284.94 2735.2 1282.33 2735.2 1278.97 2738.17 1276.24 2741.55 1276.24 2744.31 1276.24 2747.02 1278 2747.89 1280.46M2764.79 1276.26 2764.79 1295.21C2764.79 1298.7 2767.63 1301.53 2771.13 1301.53L2771.13 1301.53C2774.63 1301.53 2777.47 1298.7 2777.47 1295.21L2777.47 1276.26M2794.37 1276.26 2794.37 1287.84 2801.24 1287.84C2804.45 1287.84 2807.05 1285.25 2807.05 1282.05 2807.05 1278.86 2804.45 1276.26 2801.24 1276.26ZM2794.37 1287.84 2794.37 1301.53 2802.3 1301.53C2806.09 1301.53 2809.16 1298.46 2809.16 1294.69 2809.16 1290.91 2806.09 1287.84 2802.3 1287.84Z" stroke="#1EABDA" stroke-width="3.3747" stroke-linejoin="round" stroke-miterlimit="10" fill="none" fill-rule="evenodd"/></g></svg>